<?xml version="1.0" standalone="no"?>
<!DOCTYPE svg PUBLIC "-//W3C//DTD SVG 20010904//EN"
 "http://www.w3.org/TR/2001/REC-SVG-20010904/DTD/svg10.dtd">
<svg version="1.0" xmlns="http://www.w3.org/2000/svg"
 width="512.000000pt" height="512.000000pt" viewBox="0 0 512.000000 512.000000"
 preserveAspectRatio="xMidYMid meet">

<g transform="translate(0.000000,512.000000) scale(0.100000,-0.100000)"
fill="#000000" stroke="none">
<path d="M1490 5106 c-77 -21 -139 -58 -196 -118 -105 -110 -138 -231 -108
-390 5 -26 3 -28 -30 -28 -47 0 -81 -17 -95 -47 -16 -34 -14 -47 10 -77 20
-25 23 -26 139 -26 l118 0 26 31 c32 38 33 63 1 131 -89 192 64 411 269 383
184 -24 289 -219 208 -386 -29 -60 -28 -103 3 -134 l24 -25 310 0 310 0 3
-324 c3 -302 4 -325 22 -345 26 -29 65 -26 134 9 111 56 256 33 328 -53 92
-108 88 -271 -7 -366 -89 -90 -215 -105 -337 -40 -60 31 -66 32 -90 18 -50
-28 -52 -41 -52 -371 l0 -308 -241 0 -241 0 7 32 c13 59 6 171 -14 230 -83
240 -360 355 -583 242 -151 -77 -250 -251 -234 -411 4 -35 9 -70 12 -78 5 -13
-24 -15 -240 -15 l-246 0 0 240 0 241 53 -6 c28 -4 57 -8 64 -10 6 -2 39 0 73
5 343 48 485 467 241 711 -110 109 -265 152 -409 113 l-22 -6 2 243 3 244 58
5 c67 6 87 24 87 76 0 55 -36 74 -136 74 -46 0 -95 -5 -109 -12 -53 -24 -55
-38 -55 -405 0 -317 1 -340 20 -370 28 -47 69 -51 145 -17 147 67 309 6 370
-140 18 -43 19 -134 3 -190 -18 -60 -109 -148 -170 -165 -63 -18 -154 -10
-206 17 -55 29 -94 28 -129 -2 l-28 -24 -3 -635 -2 -635 -33 9 c-17 5 -61 9
-98 9 -376 0 -560 -456 -288 -715 111 -106 232 -139 392 -109 27 6 27 5 27
-45 0 -68 14 -101 50 -114 l30 -11 0 -96 0 -96 -30 -11 c-17 -6 -34 -23 -40
-38 -14 -36 -13 -138 2 -170 24 -53 38 -55 405 -55 317 0 340 1 370 20 47 28
51 69 17 145 -67 147 -6 309 140 370 43 18 134 19 190 3 60 -18 148 -109 165
-170 18 -63 10 -154 -17 -206 -29 -55 -28 -94 2 -129 l24 -28 635 -3 635 -2
-9 -33 c-5 -17 -9 -61 -9 -98 0 -376 456 -560 715 -288 106 111 139 232 109
391 l-6 28 282 0 c305 0 325 3 348 55 8 18 12 110 12 306 l0 281 28 -6 c115
-22 194 -13 288 34 78 38 156 120 197 207 29 62 32 76 32 168 0 91 -3 106 -31
166 -75 157 -215 249 -378 249 -39 0 -86 -4 -104 -9 l-32 -10 0 569 0 569 32
-10 c56 -16 170 -11 231 10 293 101 380 460 166 686 -104 110 -238 150 -401
119 l-28 -6 0 281 c0 196 -4 288 -12 306 -23 52 -43 55 -348 55 l-282 0 6 28
c22 115 13 194 -34 288 -38 78 -120 156 -207 197 -62 29 -76 32 -168 32 -91 0
-106 -3 -166 -31 -157 -75 -249 -215 -249 -378 0 -39 4 -86 9 -104 l10 -32
-569 0 -569 0 10 32 c14 50 11 159 -7 218 -63 212 -294 343 -504 286z m2117
-151 c151 -45 227 -222 159 -371 -33 -71 -33 -95 0 -133 l26 -31 311 -2 312
-3 3 -312 2 -311 31 -26 c38 -33 62 -33 133 0 237 109 473 -140 349 -367 -15
-28 -43 -64 -62 -80 -76 -63 -199 -76 -292 -31 -60 29 -103 28 -134 -3 l-25
-24 0 -311 0 -310 -52 0 c-63 0 -99 -16 -116 -52 -29 -62 17 -108 107 -108
l50 0 3 -309 c3 -308 3 -310 26 -334 35 -37 68 -39 137 -9 47 21 75 27 130 27
81 -1 129 -21 187 -82 49 -51 70 -105 70 -179 1 -197 -203 -323 -383 -236 -77
38 -130 26 -155 -33 -11 -27 -14 -97 -14 -325 l0 -290 -290 0 c-228 0 -298 -3
-325 -14 -59 -25 -71 -78 -33 -155 87 -180 -40 -386 -236 -384 -74 1 -120 19
-176 69 -62 56 -84 105 -85 189 0 55 6 83 27 130 30 69 28 102 -9 137 -24 23
-26 23 -334 26 l-309 3 0 313 c0 297 -1 315 -20 338 -30 39 -60 39 -136 1
-113 -56 -232 -41 -314 39 -57 55 -80 108 -80 188 0 106 53 194 145 243 30 16
58 21 116 22 66 0 83 -4 137 -32 34 -18 69 -33 78 -33 9 0 29 13 45 29 l29 29
0 316 0 316 241 0 241 0 -6 -27 c-15 -78 -16 -103 -7 -161 27 -168 150 -304
315 -348 227 -61 466 91 517 327 11 52 8 157 -6 192 -6 14 -2 17 25 17 46 0
95 50 85 88 -14 59 -34 67 -161 67 -110 0 -117 -1 -135 -24 -26 -32 -24 -61
12 -129 96 -183 -32 -397 -237 -395 -74 1 -137 27 -186 77 -51 52 -71 100 -76
179 -4 62 -1 74 32 143 33 67 36 77 24 101 -24 51 -39 53 -370 53 l-308 0 0
238 0 237 122 0 c116 0 127 2 183 29 77 38 168 129 201 200 36 80 50 173 36
247 -46 246 -281 402 -517 343 l-25 -6 0 246 0 246 310 0 311 0 24 25 c32 31
32 64 0 140 -66 161 1 313 164 371 48 17 97 17 158 -1z"/>
</g>
</svg>
